<svg width="24" height="24" viewBox="0 0 24 24" fill="none" xmlns="http://www.w3.org/2000/svg">
<path fill-rule="evenodd" clip-rule="evenodd" d="M12 21C11.7 21 11.4125 20.9458 11.1375 20.8375C10.8625 20.7292 10.6167 20.5667 10.4 20.35L4.075 14H6.9L11.825 18.925C11.8583 18.9583 11.8875 18.9792 11.9125 18.9875C11.9375 18.9958 11.9667 19 12 19C12.0333 19 12.0625 18.9958 12.0875 18.9875C12.1125 18.9792 12.1417 18.9583 12.175 18.925L15.5269 15.5606L16.9375 16.975L13.575 20.35C13.3583 20.5667 13.1167 20.7292 12.85 20.8375C12.5833 20.9458 12.3 21 12 21ZM17.5 16.4104L20.3 13.6C20.8667 13.0167 21.2917 12.35 21.575 11.6C21.8583 10.85 22 10.0667 22 9.25C22 7.55 21.4375 6.08333 20.3125 4.85C19.1875 3.61667 17.7917 3 16.125 3C15.325 3 14.5708 3.15833 13.8625 3.475C13.1542 3.79167 12.5333 4.23333 12 4.8C11.45 4.23333 10.8208 3.79167 10.1125 3.475C9.40417 3.15833 8.65 3 7.85 3C6.74091 3 5.75127 3.28034 4.88107 3.84102L6.3292 5.325C6.7906 5.10833 7.29753 5 7.85 5C8.38333 5 8.88333 5.10833 9.35 5.325C9.81667 5.54167 10.225 5.84167 10.575 6.225L11.25 6.95C11.35 7.05 11.4667 7.12917 11.6 7.1875C11.7333 7.24583 11.8667 7.275 12 7.275C12.1333 7.275 12.2667 7.24583 12.4 7.1875C12.5333 7.12917 12.6417 7.05 12.725 6.95L13.4 6.225C13.75 5.84167 14.1625 5.55 14.6375 5.35C15.1125 5.15 15.6083 5.05 16.125 5.05C17.225 5.05 18.1417 5.4625 18.875 6.2875C19.6083 7.1125 19.9917 8.1 20.025 9.25C20.025 9.8 19.925 10.3375 19.725 10.8625C19.525 11.3875 19.2333 11.8417 18.85 12.225L16.0821 15.0033L17.5 16.4104ZM4.27299 4.29502L5.70096 5.70827C5.63708 5.75715 5.57426 5.80856 5.5125 5.8625C4.85417 6.4375 4.40833 7.15 4.175 8H2.125C2.40833 6.58333 3.07083 5.39583 4.1125 4.4375C4.16547 4.38877 4.21897 4.34128 4.27299 4.29502Z" fill="black"/>
<path d="M6.85001 6.85L8.35001 8.35L20.5 20.5C20.6833 20.6833 20.7792 20.9125 20.7875 21.1875C20.7958 21.4625 20.7 21.7 20.5 21.9C20.3167 22.0833 20.0833 22.175 19.8 22.175C19.5167 22.175 19.2833 22.0833 19.1 21.9L16.15 19L14.2 17L2.10001 4.9C1.91668 4.71667 1.82501 4.48333 1.82501 4.2C1.82501 3.91667 1.91668 3.68333 2.10001 3.5C2.28335 3.31667 2.51668 3.225 2.80001 3.225C3.08335 3.225 3.31668 3.31667 3.50001 3.5L6.85001 6.85Z" fill="black"/>
</svg>
