<svg width="24" height="24" viewBox="0 0 24 24" fill="none" xmlns="http://www.w3.org/2000/svg">
<path d="M12 21C11.7 21 11.4125 20.9458 11.1375 20.8375C10.8625 20.7292 10.6167 20.5667 10.4 20.35L4.075 14H6.9L11.825 18.925C11.8583 18.9583 11.8875 18.9792 11.9125 18.9875C11.9375 18.9958 11.9667 19 12 19C12.0333 19 12.0625 18.9958 12.0875 18.9875C12.1125 18.9792 12.1417 18.9583 12.175 18.925L18.85 12.225C19.2333 11.8417 19.525 11.3875 19.725 10.8625C19.925 10.3375 20.025 9.8 20.025 9.25C19.9917 8.1 19.6083 7.1125 18.875 6.2875C18.1417 5.4625 17.225 5.05 16.125 5.05C15.6083 5.05 15.1125 5.15 14.6375 5.35C14.1625 5.55 13.75 5.84167 13.4 6.225L12.725 6.95C12.6417 7.05 12.5333 7.12917 12.4 7.1875C12.2667 7.24583 12.1333 7.275 12 7.275C11.8667 7.275 11.7333 7.24583 11.6 7.1875C11.4667 7.12917 11.35 7.05 11.25 6.95L10.575 6.225C10.225 5.84167 9.81667 5.54167 9.35 5.325C8.88333 5.10833 8.38333 5 7.85 5C6.95 5 6.17083 5.2875 5.5125 5.8625C4.85417 6.4375 4.40833 7.15 4.175 8H2.125C2.40833 6.58333 3.07083 5.39583 4.1125 4.4375C5.15417 3.47917 6.4 3 7.85 3C8.65 3 9.40417 3.15833 10.1125 3.475C10.8208 3.79167 11.45 4.23333 12 4.8C12.5333 4.23333 13.1542 3.79167 13.8625 3.475C14.5708 3.15833 15.325 3 16.125 3C17.7917 3 19.1875 3.61667 20.3125 4.85C21.4375 6.08333 22 7.55 22 9.25C22 10.0667 21.8583 10.85 21.575 11.6C21.2917 12.35 20.8667 13.0167 20.3 13.6L13.575 20.35C13.3583 20.5667 13.1167 20.7292 12.85 20.8375C12.5833 20.9458 12.3 21 12 21Z" fill="black"/>
</svg>
